<svg xmlns="http://www.w3.org/2000/svg" width="590.667" height="589.333" viewBox="0 0 443 442" xmlns:v="https://vecta.io/nano"><path d="M194.73 0h47.54c6.16.81 12.36 1.21 18.55 1.76a393.1 393.1 0 0 1 133.81 38.65c3.46 1.66 6.5 4.33 7.94 7.95 20.99 45.92 34.72 95.35 38.68 145.74.14 6.34.61 12.65 1.19 18.96 1.72 62.4-11.81 125.15-39.1 181.3-1.55 3.3-4.29 5.89-7.57 7.46-43.57 21.61-91.36 34.44-139.79 38.44-16.66 1.02-33.37 2.01-50.05.66-54.64-2.59-108.59-17.05-157.6-41.27-3.49-1.63-6.44-4.38-7.99-7.94-20.98-44.88-34.3-93.35-38.95-142.68C1.12 244.1.7 239.18 0 234.3v-45.11c.97-6.96 1.25-13.98 2.14-20.94 4.77-42.89 17.3-85.09 38.25-122.89 1.69-3.15 4.41-5.67 7.64-7.17 39.8-19.34 83.02-31.44 126.98-36.23 6.56-.83 13.18-.94 19.72-1.96M57.22 53.27c-.91.39-1.62 1.01-2.14 1.84-23.11 42.2-35.02 90.04-37.34 137.96.14 14.96-.52 29.96.4 44.9 3.33 47.59 15.16 94.53 34.44 138.15 1.2 2.56 2.11 5.29 3.7 7.65 2.06 1.44 4.46 2.32 6.71 3.42 44.72 21.02 93.48 33.69 142.87 36.09 15.69 1.37 31.44.47 47.12-.45 39.5-3.03 78.57-12.31 115.11-27.68 6.6-3.01 13.57-5.47 19.71-9.33 5.29-10.21 9.52-20.98 13.64-31.72 13.33-35.91 21.49-73.9 22.93-112.21.96-9.28.7-18.63.55-27.93-.63-5.97-.99-11.95-1.15-17.94-3.74-48.34-16.86-95.77-36.95-139.83-45.93-22.84-96.63-35.93-147.84-38.48l-39.97-.04c-48.95 2.51-97.54 14.38-141.79 35.6zm14.77 94.58c21.36-3.29 43.3-.28 63.69 6.56 23.01 7.64 44.12 20.55 61.87 37.02 8.04 7.42 15.88 15.15 22.53 23.87 17.29-20.97 38.14-39.48 62.54-51.75 25.95-12.88 55.56-20 84.52-15.83 4.09.75 8.76.34 12.22 3.04-19.42 1.45-39.25 2.3-57.78 8.83-10.91 3.81-20.75 10.08-29.82 17.14 11.63 2.33 23.37 5.06 33.91 10.67 14.59 7.77 26.63 20.43 33.28 35.6 1.89 4.27 3.94 8.57 4.5 13.27-3.41-2.6-5.38-6.5-8.14-9.7-10.5-12.66-23.24-24.04-38.71-30.16-13.07-5.28-28.17-6.42-41.49-1.38-10.3 3.8-19.49 10.1-27.71 17.29-10.2 9.37-20.06 19.43-26.83 31.63-7.15-10.44-15.28-20.22-24.62-28.79-11.2-10.55-24.54-19.7-39.89-22.64-16.44-2.76-33.33 2.41-46.94 11.61-10.2 6.87-18.98 15.68-26.45 25.41-1.74 2.44-3.52 4.88-5.76 6.89l.45-3.32c5.13-16.36 15.3-31.32 29.58-41.01 12.19-8.7 26.94-12.49 41.41-15.36-10.56-8.67-22.75-15.53-35.97-19.15-16.83-4.74-34.38-5.58-51.72-6.88 3.28-2.38 7.52-2.16 11.33-2.86z" fill="#0a693f"/><path fill="#8dc651" d="M57.22 53.27c44.25-21.22 92.84-33.09 141.79-35.6l39.97.04c51.21 2.55 101.91 15.64 147.84 38.48 20.09 44.06 33.21 91.49 36.95 139.83.16 5.99.52 11.97 1.15 17.94.15 9.3.41 18.65-.55 27.93-1.44 38.31-9.6 76.3-22.93 112.21-4.12 10.74-8.35 21.51-13.64 31.72-6.14 3.86-13.11 6.32-19.71 9.33-36.54 15.37-75.61 24.65-115.11 27.68-15.68.92-31.43 1.82-47.12.45-49.39-2.4-98.15-15.07-142.87-36.09-2.25-1.1-4.65-1.98-6.71-3.42-1.59-2.36-2.5-5.09-3.7-7.65-19.28-43.62-31.11-90.56-34.44-138.15-.92-14.94-.26-29.94-.4-44.9 2.32-47.92 14.23-95.76 37.34-137.96.52-.83 1.23-1.45 2.14-1.84M77.7 76.23c3.52 2.55 7.76 3.7 11.7 5.4 13.77 5.73 27.21 12.26 40.23 19.55 17.01 9.68 33.36 21.17 45.98 36.3 8.81 11.09 14.38 24.61 16.13 38.65.45 2.37.11 5.29 2.2 6.97 4.44 3.87 9.29 7.3 13.28 11.67 2.78 2.96 5.04 6.4 8.13 9.09 1.53-8.72.43-17.67-.9-26.35-4.45-23.76-17.68-45.36-35.34-61.65-24.09-22.58-56.06-36.38-88.91-39.18-4.14-.6-8.33-.9-12.5-.45m243.35 6.04c-30.68 9.17-59.06 27.8-77.32 54.39-13.63 19.54-20.62 43.76-18.45 67.56 2.07-1.89 3.92-4 5.7-6.18 4.66-5.39 9.99-10.15 15.57-14.56 1.41-.99 2.15-2.63 2.25-4.32.89-9.1 3.15-18.1 7-26.41 4.09-8.96 10.35-16.73 17.13-23.79 22.05-20.98 49.65-34.78 77.31-46.78 4.22-2.05 9.06-2.94 12.75-5.97-2.01-.13-4-.27-6-.18-12.13.96-24.27 2.67-35.94 6.24M71.99 147.85c-3.81.7-8.05.48-11.33 2.86 17.34 1.3 34.89 2.14 51.72 6.88 13.22 3.62 25.41 10.48 35.97 19.15-14.47 2.87-29.22 6.66-41.41 15.36-14.28 9.69-24.45 24.65-29.58 41.01l-.45 3.32c2.24-2.01 4.02-4.45 5.76-6.89 7.47-9.73 16.25-18.54 26.45-25.41 13.61-9.2 30.5-14.37 46.94-11.61 15.35 2.94 28.69 12.09 39.89 22.64 9.34 8.57 17.47 18.35 24.62 28.79 6.77-12.2 16.63-22.26 26.83-31.63 8.22-7.19 17.41-13.49 27.71-17.29 13.32-5.04 28.42-3.9 41.49 1.38 15.47 6.12 28.21 17.5 38.71 30.16 2.76 3.2 4.73 7.1 8.14 9.7-.56-4.7-2.61-9-4.5-13.27-6.65-15.17-18.69-27.83-33.28-35.6-10.54-5.61-22.28-8.34-33.91-10.67 9.07-7.06 18.91-13.33 29.82-17.14 18.53-6.53 38.36-7.38 57.78-8.83-3.46-2.7-8.13-2.29-12.22-3.04-28.96-4.17-58.57 2.95-84.52 15.83-24.4 12.27-45.25 30.78-62.54 51.75-6.65-8.72-14.49-16.45-22.53-23.87-17.75-16.47-38.86-29.38-61.87-37.02-20.39-6.84-42.33-9.85-63.69-6.56m118.2 68.16c-7.63 22.22-15.51 44.4-21.79 67.05-4.37 17.58-6.53 36.31-1.5 54 4.57 17.56 16.34 32.85 31.65 42.46 6.01 3.58 12.08 7.31 18.84 9.3-2.48-3.85-6.1-6.7-9.21-9.99-14.49-14.79-25.13-34.12-26.69-55.02-1.84-17.48 4.42-34.52 10.96-50.43l16.64-38.36c-1.99-3.6-4.86-6.55-7.7-9.48-3.45-3.48-6.92-7.05-11.2-9.53m41.62 18.98c8.03 20.01 18.25 39.18 24.46 59.87 3.74 11.79 4.12 24.41 2.28 36.57-3.27 16.8-11.88 32.26-23.34 44.86-3.6 4.36-8.1 7.9-11.49 12.44 16.71-6.08 32.35-16.84 41.79-32.18 10.29-16.39 13.39-36.7 10.38-55.66-2.26-18.13-8.59-35.38-14.19-52.67-3.68-10.73-6.95-21.61-11.04-32.2-7.41 4.98-13.92 11.52-18.85 18.97m-87.94 3.72c-5.8 14.09-11.62 28.2-16.36 42.69-3.97 12.21-7.36 24.73-8.13 37.59-.55 8.92.81 18.06 4.71 26.16 6.58 13.85 18.56 24.44 31.66 32 12.32 7.17 26.23 10.96 40.17 13.41 2.04.32 4.12.3 6.18.29-4.72-2.99-9.95-5.07-14.61-8.17-10.04-6.48-18.81-15.16-24.7-25.6-8.26-14.1-10.84-30.92-9.28-47.03.8-15.91 5.14-31.35 9.96-46.44 4.02-12.95 8.95-25.59 13.42-38.38-7.34-4.07-15.63-6.26-24.01-6.61-3.5 6.47-6.12 13.35-9.01 20.09m120.21-13.47c7.26 20.76 15.31 41.35 20.17 62.86 3.78 17.54 5.56 36.22.42 53.67-5.07 17.25-16.88 32.32-32.26 41.59-4.41 2.77-9.32 4.67-13.68 7.54 5.73.26 11.29-1.37 16.86-2.5 20.44-4.58 40.25-14.8 53.65-31.22 7.39-9.03 12.18-20.38 12.28-32.15.31-15.97-4.06-31.56-9.07-46.58-6.73-19.11-14.46-37.85-22.57-56.42-.73-1.19-1.16-3.26-2.9-3.22-8 .19-15.89 2.61-22.9 6.43z"/><path d="M77.7 76.23c4.17-.45 8.36-.15 12.5.45 32.85 2.8 64.82 16.6 88.91 39.18 17.66 16.29 30.89 37.89 35.34 61.65 1.33 8.68 2.43 17.63.9 26.35-3.09-2.69-5.35-6.13-8.13-9.09-3.99-4.37-8.84-7.8-13.28-11.67-2.09-1.68-1.75-4.6-2.2-6.97-1.75-14.04-7.32-27.56-16.13-38.65-12.62-15.13-28.97-26.62-45.98-36.3-13.02-7.29-26.46-13.82-40.23-19.55-3.94-1.7-8.18-2.85-11.7-5.4zm243.35 6.04c11.67-3.57 23.81-5.28 35.94-6.24 2-.09 3.99.05 6 .18-3.69 3.03-8.53 3.92-12.75 5.97-27.66 12-55.26 25.8-77.31 46.78-6.78 7.06-13.04 14.83-17.13 23.79-3.85 8.31-6.11 17.31-7 26.41-.1 1.69-.84 3.33-2.25 4.32-5.58 4.41-10.91 9.17-15.57 14.56-1.78 2.18-3.63 4.29-5.7 6.18-2.17-23.8 4.82-48.02 18.45-67.56 18.26-26.59 46.64-45.22 77.32-54.39zM190.19 216.01c4.28 2.48 7.75 6.05 11.2 9.53 2.84 2.93 5.71 5.88 7.7 9.48-5.34 12.87-11.18 25.53-16.64 38.36-6.54 15.91-12.8 32.95-10.96 50.43 1.56 20.9 12.2 40.23 26.69 55.02 3.11 3.29 6.73 6.14 9.21 9.99-6.76-1.99-12.83-5.72-18.84-9.3-15.31-9.61-27.08-24.9-31.65-42.46-5.03-17.69-2.87-36.42 1.5-54 6.28-22.65 14.16-44.83 21.79-67.05zm41.62 18.98c4.93-7.45 11.44-13.99 18.85-18.97 4.09 10.59 7.36 21.47 11.04 32.2 5.6 17.29 11.93 34.54 14.19 52.67 3.01 18.96-.09 39.27-10.38 55.66-9.44 15.34-25.08 26.1-41.79 32.18 3.39-4.54 7.89-8.08 11.49-12.44 11.46-12.6 20.07-28.06 23.34-44.86 1.84-12.16 1.46-24.78-2.28-36.57-6.21-20.69-16.43-39.86-24.46-59.87z" fill="#6a2c11"/><path d="M143.87 238.71c2.89-6.74 5.51-13.62 9.01-20.09 8.38.35 16.67 2.54 24.01 6.61-4.47 12.79-9.4 25.43-13.42 38.38-4.82 15.09-9.16 30.53-9.96 46.44-1.56 16.11 1.02 32.93 9.28 47.03 5.89 10.44 14.66 19.12 24.7 25.6 4.66 3.1 9.89 5.18 14.61 8.17-2.06.01-4.14.03-6.18-.29-13.94-2.45-27.85-6.24-40.17-13.41-13.1-7.56-25.08-18.15-31.66-32-3.9-8.1-5.26-17.24-4.71-26.16.77-12.86 4.16-25.38 8.13-37.59 4.74-14.49 10.56-28.6 16.36-42.69zm120.21-13.47c7.01-3.82 14.9-6.24 22.9-6.43 1.74-.04 2.17 2.03 2.9 3.22 8.11 18.57 15.84 37.31 22.57 56.42 5.01 15.02 9.38 30.61 9.07 46.58-.1 11.77-4.89 23.12-12.28 32.15-13.4 16.42-33.21 26.64-53.65 31.22-5.57 1.13-11.13 2.76-16.86 2.5 4.36-2.87 9.27-4.77 13.68-7.54 15.38-9.27 27.19-24.34 32.26-41.59 5.14-17.45 3.36-36.13-.42-53.67-4.86-21.51-12.91-42.1-20.17-62.86z" fill="#ca8b2a"/></svg>